<svg width="36" height="36" viewBox="0 0 36 36" fill="none" xmlns="http://www.w3.org/2000/svg">
<path d="M21.0476 27.5456L18.9641 31.0174C18.8642 31.184 18.7228 31.3218 18.5537 31.4176C18.3847 31.5133 18.1937 31.5636 17.9994 31.5636C17.8052 31.5636 17.6142 31.5133 17.4451 31.4176C17.2761 31.3218 17.1347 31.184 17.0348 31.0174L14.9535 27.5456C14.8534 27.3791 14.7119 27.2413 14.5428 27.1456C14.3736 27.05 14.1826 26.9998 13.9883 27H5.625C5.32663 27 5.04048 26.8815 4.82951 26.6705C4.61853 26.4595 4.5 26.1734 4.5 25.875V7.875C4.5 7.57663 4.61853 7.29048 4.82951 7.07951C5.04048 6.86853 5.32663 6.75 5.625 6.75H30.375C30.6734 6.75 30.9595 6.86853 31.1705 7.07951C31.3815 7.29048 31.5 7.57663 31.5 7.875V25.875C31.5 26.1734 31.3815 26.4595 31.1705 26.6705C30.9595 26.8815 30.6734 27 30.375 27H22.0117C21.8176 27 21.6268 27.0503 21.4579 27.1459C21.2889 27.2415 21.1476 27.3792 21.0476 27.5456V27.5456Z" stroke="#B3B3B3" stroke-width="1.2" stroke-linecap="round" stroke-linejoin="round"/>
</svg>
