<svg width="36" height="36" viewBox="0 0 36 36" fill="none" xmlns="http://www.w3.org/2000/svg">
<path d="M35.9015 10.5841C35.8172 8.67128 35.5078 7.35623 35.0647 6.21673C34.6076 5.00717 33.9043 3.92426 32.983 3.02403C32.0827 2.10979 30.9927 1.39938 29.7971 0.949404C28.651 0.506294 27.3429 0.196968 25.43 0.112632C23.5029 0.0211528 22.8912 0 18.0035 0C13.1158 0 12.504 0.0211528 10.5841 0.105489C8.67127 0.189826 7.35622 0.499426 6.21699 0.942262C5.00717 1.39938 3.92425 2.10264 3.02402 3.02403C2.10978 3.92426 1.39965 5.01432 0.949403 6.20986C0.506293 7.35623 0.196968 8.66414 0.112632 10.577C0.0211528 12.5041 0 13.1158 0 18.0035C0 22.8912 0.0211528 23.503 0.105489 25.4229C0.189826 27.3358 0.499425 28.6508 0.942535 29.7903C1.39965 30.9999 2.10978 32.0828 3.02402 32.983C3.92425 33.8972 5.01431 34.6076 6.20985 35.0576C7.35622 35.5007 8.66412 35.8101 10.5772 35.8944C12.4969 35.979 13.109 35.9999 17.9966 35.9999C22.8843 35.9999 23.4961 35.979 25.416 35.8944C27.3288 35.8101 28.6439 35.5007 29.7831 35.0576C32.2025 34.1222 34.1153 32.2094 35.0507 29.7903C35.4935 28.6439 35.8031 27.3358 35.8875 25.4229C35.9718 23.503 35.993 22.8912 35.993 18.0035C35.993 13.1158 35.9858 12.5041 35.9015 10.5841ZM32.6596 25.2823C32.5821 27.0404 32.2868 27.9898 32.0407 28.6228C31.4358 30.1911 30.1911 31.4358 28.6227 32.0407C27.9898 32.2869 27.0335 32.5822 25.2822 32.6594C23.3834 32.744 22.814 32.7649 18.0106 32.7649C13.2073 32.7649 12.6307 32.744 10.7387 32.6594C8.98059 32.5822 8.03119 32.2869 7.39825 32.0407C6.6178 31.7523 5.90739 31.2952 5.33078 30.6974C4.733 30.1136 4.27588 29.4104 3.98744 28.6299C3.7413 27.997 3.44598 27.0404 3.36879 25.2894C3.28418 23.3906 3.2633 22.8209 3.2633 18.0175C3.2633 13.2142 3.28418 12.6376 3.36879 10.7459C3.44598 8.98775 3.7413 8.03834 3.98744 7.40541C4.27588 6.62468 4.733 5.91455 5.33792 5.33765C5.9214 4.73988 6.62467 4.28276 7.4054 3.99458C8.03833 3.74844 8.99488 3.45313 10.7459 3.37566C12.6447 3.29132 13.2144 3.27017 18.0175 3.27017C22.828 3.27017 23.3974 3.29132 25.2894 3.37566C27.0475 3.45313 27.9969 3.74844 28.6299 3.99458C29.4103 4.28276 30.1207 4.73988 30.6974 5.33765C31.2951 5.92141 31.7522 6.62468 32.0407 7.40541C32.2868 8.03834 32.5821 8.99462 32.6596 10.7459C32.744 12.6447 32.7651 13.2142 32.7651 18.0175C32.7651 22.8209 32.744 23.3835 32.6596 25.2823Z" fill="#4D4D4D"/>
</svg>
