<svg width="37" height="20" viewBox="0 0 37 20" fill="none" xmlns="http://www.w3.org/2000/svg">
<path d="M10 3.33333C8.23189 3.33333 6.5362 4.03571 5.28595 5.28595C4.03571 6.5362 3.33333 8.23189 3.33333 10C3.33333 11.7681 4.03571 13.4638 5.28595 14.714C6.5362 15.9643 8.23189 16.6667 10 16.6667H13.3333C13.7754 16.6667 14.1993 16.8423 14.5118 17.1548C14.8244 17.4674 15 17.8913 15 18.3333C15 18.7754 14.8244 19.1993 14.5118 19.5118C14.1993 19.8244 13.7754 20 13.3333 20H10C7.34783 20 4.8043 18.9464 2.92893 17.0711C1.05357 15.1957 0 12.6522 0 10C0 7.34784 1.05357 4.8043 2.92893 2.92893C4.8043 1.05357 7.34783 0 10 0H13.3333C13.7754 0 14.1993 0.175595 14.5118 0.488156C14.8244 0.800716 15 1.22464 15 1.66667C15 2.10869 14.8244 2.53262 14.5118 2.84518C14.1993 3.15774 13.7754 3.33333 13.3333 3.33333H10ZM21.6667 1.66667C21.6667 1.22464 21.8423 0.800716 22.1548 0.488156C22.4674 0.175595 22.8913 0 23.3333 0H26.6667C29.3188 0 31.8624 1.05357 33.7377 2.92893C35.6131 4.8043 36.6667 7.34784 36.6667 10C36.6667 12.6522 35.6131 15.1957 33.7377 17.0711C31.8624 18.9464 29.3188 20 26.6667 20H23.3333C22.8913 20 22.4674 19.8244 22.1548 19.5118C21.8423 19.1993 21.6667 18.7754 21.6667 18.3333C21.6667 17.8913 21.8423 17.4674 22.1548 17.1548C22.4674 16.8423 22.8913 16.6667 23.3333 16.6667H26.6667C28.4348 16.6667 30.1305 15.9643 31.3807 14.714C32.631 13.4638 33.3333 11.7681 33.3333 10C33.3333 8.23189 32.631 6.5362 31.3807 5.28595C30.1305 4.03571 28.4348 3.33333 26.6667 3.33333H23.3333C22.8913 3.33333 22.4674 3.15774 22.1548 2.84518C21.8423 2.53262 21.6667 2.10869 21.6667 1.66667ZM10 10C10 9.55797 10.1756 9.13405 10.4882 8.82149C10.8007 8.50893 11.2246 8.33333 11.6667 8.33333H25C25.442 8.33333 25.8659 8.50893 26.1785 8.82149C26.4911 9.13405 26.6667 9.55797 26.6667 10C26.6667 10.442 26.4911 10.8659 26.1785 11.1785C25.8659 11.4911 25.442 11.6667 25 11.6667H11.6667C11.2246 11.6667 10.8007 11.4911 10.4882 11.1785C10.1756 10.8659 10 10.442 10 10Z" fill="#4D4D4D"/>
</svg>
