<svg width="30" height="29" viewBox="0 0 30 29" fill="none" xmlns="http://www.w3.org/2000/svg">
<path d="M15.6361 24.0474L22.9111 28.6559C23.8411 29.2444 24.9949 28.3686 24.7191 27.2828L22.618 19.0155C22.5586 18.7852 22.5655 18.5429 22.6377 18.3163C22.71 18.0897 22.8447 17.8882 23.0265 17.7347L29.5503 12.3059C30.4065 11.5928 29.9657 10.1701 28.8638 10.0986L20.3449 9.54475C20.1156 9.52848 19.8955 9.44739 19.7105 9.31094C19.5254 9.17449 19.3829 8.98827 19.2995 8.77398L16.1218 0.773208C16.0353 0.545831 15.8817 0.350123 15.6814 0.212035C15.4811 0.0739465 15.2436 0 15.0003 0C14.757 0 14.5195 0.0739465 14.3192 0.212035C14.1189 0.350123 13.9653 0.545831 13.8788 0.773208L10.7011 8.77398C10.6179 8.98849 10.4755 9.17494 10.2904 9.31161C10.1053 9.44828 9.88518 9.52953 9.65569 9.5459L1.13684 10.0997C0.0360704 10.1701 -0.407006 11.5928 0.450301 12.3059L6.97415 17.7359C7.15566 17.8892 7.29026 18.0906 7.36251 18.3169C7.43476 18.5433 7.44173 18.7854 7.38261 19.0155L5.43492 26.6828C5.10376 27.9855 6.48953 29.0367 7.60415 28.3294L14.3657 24.0474C14.5557 23.9266 14.7763 23.8625 15.0015 23.8625C15.2266 23.8625 15.4472 23.9266 15.6372 24.0474H15.6361Z" fill="#FF8A00"/>
</svg>
